<svg version="1.1" id="Layer_1" xmlns="http://www.w3.org/2000/svg" xmlns:xlink="http://www.w3.org/1999/xlink" x="0px" y="0px"
	 width="100%" viewBox="0 0 1024 1024" enable-background="new 0 0 1024 1024" xml:space="preserve">
<path fill="#000000" opacity="1.000000" stroke="none" 
	d="
M256.609497,497.309113 
	C264.678040,504.901764 268.539978,513.741638 268.393463,524.663635 
	C268.102905,546.322754 268.343689,567.988708 268.310455,589.651733 
	C268.284424,606.632324 255.024994,620.139282 237.947754,620.318542 
	C221.119324,620.495178 204.287277,620.413391 187.457306,620.337524 
	C169.380005,620.256104 156.661194,607.946106 156.021164,589.801270 
	C155.751114,582.145325 155.939468,574.473145 155.924362,566.808350 
	C155.907608,558.315063 152.878067,555.356506 144.485657,555.409912 
	C135.998047,555.463989 127.508759,555.453918 119.021713,555.349182 
	C103.971603,555.163635 91.984787,543.609253 91.754745,528.463501 
	C91.466286,509.471191 91.509201,490.468506 91.760384,471.474976 
	C91.955627,456.710999 103.521423,445.479919 118.893860,444.936340 
	C127.714165,444.624420 136.555923,444.969177 145.386261,444.866241 
	C148.960419,444.824585 150.585571,446.133514 150.386017,449.868103 
	C150.172913,453.855927 150.249268,457.866302 150.361908,461.862244 
	C150.452408,465.072968 149.026138,466.330414 145.868149,466.288666 
	C138.370712,466.189484 130.871063,466.231323 123.372444,466.257111 
	C115.831436,466.283081 112.520294,469.152252 112.427910,476.643311 
	C112.228615,492.804718 112.243706,508.971436 112.414314,525.133423 
	C112.480980,531.448975 115.747208,534.584106 122.168884,534.729980 
	C131.829254,534.949524 141.497452,534.881836 151.162018,534.848816 
	C166.733704,534.795593 177.364319,545.201172 177.386368,560.638794 
	C177.399216,569.636902 177.343765,578.635193 177.355499,587.633362 
	C177.366486,596.061401 180.768860,599.601868 189.109070,599.637573 
	C204.439606,599.703247 219.770737,599.696472 235.101379,599.646484 
	C242.355057,599.622803 246.693039,595.493347 246.737732,588.220520 
	C246.869797,566.724915 246.893219,545.227905 246.818390,523.731995 
	C246.791046,515.876404 243.621017,512.992065 235.756653,512.910522 
	C218.114197,512.727600 200.463257,512.789856 182.832428,512.229065 
	C167.087906,511.728271 156.006958,500.301300 155.846542,484.492249 
	C155.601395,460.332336 155.567459,436.165375 155.857422,412.006378 
	C156.087921,392.803619 168.747314,380.758331 187.999985,380.724579 
	C204.163879,380.696228 220.329819,380.566071 236.491196,380.770630 
	C249.386169,380.933838 259.255829,386.506439 264.960175,398.385681 
	C267.448212,403.566986 267.966797,409.263702 268.088257,414.931091 
	C268.231049,421.593506 268.100311,428.261383 268.128052,434.926727 
	C268.159698,442.524628 270.407928,444.732758 277.898285,444.920959 
	C287.717896,445.167725 297.531036,444.807587 307.366150,445.323029 
	C321.013489,446.038300 333.068848,458.598755 333.250031,473.500214 
	C333.472870,491.827637 333.536285,510.162872 333.260193,528.488586 
	C333.049927,542.443054 320.444550,554.896545 306.516815,555.265442 
	C297.191345,555.512451 287.853455,555.250610 278.523468,555.383362 
	C275.128845,555.431641 273.606598,554.178589 273.760406,550.711243 
	C273.907959,547.385254 273.874451,544.044250 273.759491,540.715393 
	C273.611237,536.422729 275.685944,534.734436 279.843414,534.803589 
	C287.006866,534.922852 294.174896,534.938354 301.338501,534.831360 
	C308.963715,534.717468 312.582642,531.055237 312.629059,523.313171 
	C312.716003,508.816101 312.737183,494.317657 312.636108,479.820831 
	C312.561432,469.111450 309.555206,466.334839 298.873932,466.208069 
	C289.219482,466.093536 279.507721,467.091431 269.921143,465.711304 
	C255.803284,463.678802 247.161743,453.604919 246.890549,439.331848 
	C246.722794,430.502869 246.890594,421.667938 246.780762,412.837280 
	C246.686737,405.277649 243.635803,402.248688 236.094009,402.225372 
	C219.763535,402.174927 203.432724,402.192932 187.102158,402.230438 
	C180.680801,402.245178 177.441528,405.174194 177.409866,411.594543 
	C177.295700,434.756683 177.316620,457.919891 177.407425,481.082214 
	C177.431396,487.194366 181.193314,490.648560 187.743683,490.684540 
	C203.573914,490.771545 219.406082,490.817963 235.235229,490.659363 
	C243.016174,490.581421 250.043167,492.488373 256.609497,497.309113 
M174.799164,440.500214 
	C174.809509,431.335785 174.729263,422.170135 174.854752,413.007294 
	C174.990158,403.120544 178.522125,399.177551 188.395599,399.129730 
	C205.048584,399.049072 221.717865,398.377625 238.360260,399.636902 
	C244.977875,400.137634 248.764374,404.143524 249.415741,410.874023 
	C250.286331,419.869843 249.281387,428.843628 249.369461,437.828674 
	C249.520370,453.224274 259.730316,463.544189 275.115265,463.614014 
	C284.280548,463.655609 293.446930,463.575073 302.611206,463.683105 
	C310.201172,463.772552 314.984253,468.039734 315.109222,475.693237 
	C315.381226,492.352753 315.348969,509.021729 315.126495,525.682678 
	C315.035126,532.526367 309.637726,537.229980 302.676727,537.332581 
	C297.844757,537.403870 293.011505,537.405273 288.178802,537.406799 
	C276.842133,537.410278 276.946594,537.407349 276.452087,548.421509 
	C276.305481,551.686584 277.303467,552.984131 280.598083,552.929565 
	C289.094482,552.788635 297.603943,553.075867 306.089630,552.732666 
	C319.151764,552.204346 330.541962,540.689575 330.697632,527.682007 
	C330.912964,509.687256 330.901001,491.684967 330.642914,473.690826 
	C330.432098,458.993561 318.967346,448.100586 304.322906,448.024841 
	C295.163849,447.977448 286.004456,448.301178 276.847748,447.500885 
	C268.587921,446.778961 265.374878,443.399414 265.303040,435.118439 
	C265.225128,426.135864 264.868286,417.155914 264.755463,408.173279 
	C264.716614,405.081024 263.924011,402.237457 262.585907,399.536713 
	C257.242645,388.752197 248.228928,383.574341 236.475586,383.385590 
	C220.648132,383.131439 204.813675,383.287079 188.982285,383.309814 
	C169.831833,383.337341 158.460892,394.563202 158.382736,413.769836 
	C158.289169,436.765259 158.299545,459.762207 158.452332,482.757263 
	C158.563889,499.549652 168.949524,509.629028 185.908264,509.686157 
	C202.739426,509.742889 219.571335,509.650452 236.401978,509.762390 
	C244.087036,509.813507 248.973450,514.367249 249.362579,522.010620 
	C250.463470,543.635925 249.341995,565.270142 249.358353,586.901062 
	C249.366241,597.318359 244.421188,602.231201 234.092896,602.259583 
	C219.261444,602.300354 204.429825,602.287048 189.598267,602.277222 
	C179.447739,602.270447 174.937210,597.859314 174.839096,587.702332 
	C174.755386,579.037537 174.925079,570.369690 174.788010,561.706177 
	C174.543533,546.255310 165.534653,537.508545 149.922516,537.422424 
	C140.757187,537.371826 131.590942,537.438782 122.426193,537.346436 
	C114.640419,537.267944 110.007164,533.224670 109.883720,525.501648 
	C109.614792,508.674896 109.629829,491.838867 109.860413,475.011169 
	C109.957558,467.922058 114.717911,463.734039 121.725471,463.660828 
	C126.890961,463.606873 132.057358,463.619476 137.223267,463.631897 
	C148.504120,463.659058 148.408829,463.670807 147.926254,452.382690 
	C147.789520,449.184113 146.638260,447.928955 143.437454,447.974823 
	C136.274841,448.077423 129.083511,448.336670 121.949860,447.853455 
	C106.652191,446.817200 94.551384,457.311249 94.355240,472.703888 
	C94.121696,491.031921 94.118256,509.366852 94.326294,527.695251 
	C94.485542,541.725159 105.441124,552.563293 119.518845,552.902100 
	C127.678833,553.098572 135.847885,552.917358 144.012848,552.909302 
	C155.068695,552.898438 158.985367,556.828979 159.015152,568.014526 
	C159.036438,576.011963 158.650909,584.029785 159.093811,592.002563 
	C159.924408,606.954834 171.424774,617.653198 186.327271,617.715515 
	C202.991653,617.785156 219.656601,617.753540 236.321213,617.723083 
	C253.539902,617.691589 265.662262,605.656616 265.696747,588.512512 
	C265.739990,567.015137 265.203217,545.501648 265.885040,524.025879 
	C266.346344,509.495605 254.705124,492.681854 235.050232,493.215820 
	C219.563263,493.636536 204.055908,493.391357 188.558350,493.306732 
	C178.966614,493.254364 174.894165,489.092010 174.845810,479.495422 
	C174.781998,466.830597 174.817642,454.165283 174.799164,440.500214 
z"/>
<path fill="#000000" opacity="1.000000" stroke="none" 
	d="
M569.190063,521.696106 
	C567.051514,514.878845 565.059753,508.433441 563.067993,501.988007 
	C562.878723,502.034973 562.689514,502.081909 562.500244,502.128845 
	C562.500244,519.559082 562.178467,536.997131 562.602295,554.417053 
	C562.939880,568.295959 563.343750,568.286133 549.543579,568.267395 
	C540.686279,568.255371 540.696167,568.255371 540.695374,559.309326 
	C540.692261,523.655518 540.679749,488.001678 540.677307,452.347839 
	C540.676819,445.287964 540.955444,445.015594 547.945801,444.952759 
	C549.778442,444.936279 551.611877,444.904266 553.443726,444.941956 
	C566.604675,445.212799 563.817383,443.012543 567.876831,456.152985 
	C572.526794,471.205170 576.949402,486.327606 581.952454,501.326050 
	C581.952454,484.790161 582.094910,468.252289 581.865906,451.719574 
	C581.796936,446.742004 583.574280,444.670685 588.493774,444.916138 
	C592.150208,445.098633 595.823608,445.027344 599.487183,444.954590 
	C603.099915,444.882874 604.420959,446.505981 604.373901,450.133575 
	C604.220520,461.960602 604.322815,473.790985 604.323792,485.620056 
	C604.325806,511.110870 604.227722,536.602417 604.415527,562.091858 
	C604.450195,566.799927 603.156372,568.466858 598.237610,568.390747 
	C583.387878,568.160950 583.354309,568.363525 578.986145,554.096008 
	C575.722046,543.434570 572.549866,532.744995 569.190063,521.696106 
M599.786682,565.512451 
	C602.745911,564.198547 601.676270,561.505737 601.680786,559.375000 
	C601.751709,525.736206 601.770630,492.097137 601.712280,458.458282 
	C601.691040,446.242371 602.935669,448.435028 591.403015,447.965729 
	C586.820190,447.779236 584.874756,448.978058 584.910400,454.021240 
	C585.046814,473.307190 584.772888,492.596039 584.656799,511.883820 
	C584.650635,512.908875 584.618774,513.902100 583.408630,514.406555 
	C581.124939,513.737549 581.507080,511.468781 581.035889,509.905243 
	C576.143250,493.667847 571.432739,477.375641 566.586365,461.124115 
	C562.755676,448.278656 562.702759,448.294464 549.482971,448.054291 
	C549.149963,448.048248 548.805786,448.092255 548.485718,448.024109 
	C544.041687,447.077942 543.255371,449.284210 543.270142,453.239655 
	C543.397278,487.377350 543.314331,521.515747 543.376831,555.653809 
	C543.398376,567.430847 542.159424,565.208801 553.514587,565.787292 
	C558.784424,566.055664 559.922607,564.126770 559.871277,559.239014 
	C559.652893,538.425415 559.783508,517.607788 559.865112,496.792023 
	C559.873352,494.686584 559.269714,492.257812 561.420654,490.358459 
	C563.436523,492.944946 564.047852,495.755524 564.859009,498.397003 
	C570.372864,516.351379 575.750916,534.347473 581.179077,552.328247 
	C585.203796,565.660278 585.208008,565.658997 599.786682,565.512451 
z"/>
<path fill="#000000" opacity="1.000000" stroke="none" 
	d="
M419.423096,452.590332 
	C427.285126,461.695526 428.374420,472.337738 428.100983,483.355316 
	C428.036438,485.956482 426.855713,487.323975 424.088348,487.276184 
	C419.259430,487.192719 414.427948,487.216370 409.597961,487.253204 
	C406.827362,487.274323 405.719543,485.847412 405.731476,483.221313 
	C405.745819,480.056885 405.816711,476.885681 405.646881,473.729034 
	C405.355957,468.321411 402.164520,465.283417 397.097595,465.368744 
	C392.147430,465.452148 389.383820,468.241882 389.365479,473.774963 
	C389.290924,496.261017 389.285828,518.747742 389.383881,541.233643 
	C389.407654,546.685913 392.618927,549.750916 397.718140,549.833191 
	C402.165741,549.904968 405.445374,546.491516 405.631805,541.344116 
	C405.782501,537.184814 405.822937,533.012878 405.682526,528.854248 
	C405.562592,525.300537 406.892120,523.588928 410.604614,523.710205 
	C415.097229,523.856934 419.598175,523.786560 424.095062,523.750366 
	C426.441864,523.731506 428.075531,524.573547 428.080597,527.117065 
	C428.098358,536.065857 428.839905,545.002869 424.389069,553.473938 
	C417.058868,567.425293 405.634155,571.097717 390.329651,569.054504 
	C378.374817,567.458557 368.644012,556.969177 367.673798,544.441406 
	C365.782043,520.013428 367.045715,495.519897 367.072906,471.054779 
	C367.076355,467.964325 367.998901,464.835754 369.302826,461.886261 
	C377.877441,442.490479 402.510101,437.745728 419.423096,452.590332 
M419.294586,526.322876 
	C417.462585,526.322815 415.614594,526.478088 413.801849,526.291199 
	C409.712402,525.869385 407.977173,527.483459 408.263611,531.678650 
	C408.501190,535.158081 408.318787,538.670715 408.232574,542.166382 
	C408.155212,545.304382 407.049133,548.058594 404.578857,550.075684 
	C401.235931,552.805420 397.569733,553.765991 393.440155,551.824585 
	C388.887238,549.684204 386.736908,546.159729 386.744263,541.115234 
	C386.776825,518.798645 386.735016,496.481903 386.728851,474.165253 
	C386.726837,466.885345 390.224152,462.966980 396.920654,462.704407 
	C403.693268,462.438812 407.935760,466.549866 408.302155,473.733337 
	C408.884155,485.144409 408.881073,485.013885 420.530548,484.735077 
	C424.269165,484.645599 425.557495,483.033905 425.637634,479.618683 
	C425.740265,475.241364 424.868744,471.008118 423.871429,466.805786 
	C421.465363,456.667480 415.321289,449.539276 405.074463,447.675140 
	C393.702789,445.606445 382.725769,446.785614 374.955200,457.227875 
	C370.734924,462.899261 369.927368,469.335754 369.864960,476.133453 
	C369.673920,496.944153 370.454620,517.755615 369.618927,538.567505 
	C369.138092,550.542358 376.445587,562.072815 386.838745,565.295959 
	C399.033752,569.077942 411.468292,566.711792 419.351898,556.598450 
	C425.422729,548.810547 425.054901,539.905396 424.967896,530.881653 
	C424.934631,527.431458 423.631348,525.926270 419.294586,526.322876 
z"/>
<path fill="#000000" opacity="1.000000" stroke="none" 
	d="
M774.652588,551.266296 
	C772.653992,540.380432 772.636475,540.709229 762.043579,540.145325 
	C756.767090,539.864502 754.933899,541.857056 754.476196,546.668213 
	C753.941223,552.290039 752.911438,557.863098 752.272705,563.477417 
	C751.917908,566.595886 750.754272,568.404236 747.283508,568.293640 
	C742.790833,568.150452 738.290344,568.238403 733.793274,568.256409 
	C730.819275,568.268311 729.652405,567.166504 730.227173,563.942932 
	C734.310974,541.035950 738.286560,518.109436 742.235168,495.178589 
	C744.773132,480.440430 747.348633,465.705872 749.598999,450.922791 
	C750.258362,446.591492 752.119507,444.809113 756.413879,444.935394 
	C761.738892,445.091980 767.072998,445.000000 772.402161,444.932770 
	C776.029419,444.887024 777.676025,446.537170 778.298889,450.179169 
	C782.694702,475.881256 787.255188,501.555145 791.778442,527.235352 
	C793.853394,539.015381 795.924133,550.796448 798.078552,562.562073 
	C798.812134,566.568542 797.690613,568.615540 793.251526,568.298584 
	C790.102966,568.073914 786.874207,567.895386 783.772034,568.335754 
	C778.336365,569.107361 776.251587,566.585999 775.869568,561.600220 
	C775.615906,558.289673 775.085571,555.000244 774.652588,551.266296 
M751.751221,546.502930 
	C752.856750,537.699341 752.856750,537.696167 761.610352,537.667603 
	C764.775757,537.657288 767.942505,537.722717 771.106140,537.648071 
	C773.688538,537.587219 775.058472,538.601074 775.471008,541.287476 
	C776.277710,546.540649 777.576965,551.725464 778.228699,556.993469 
	C779.301086,565.661804 779.152344,565.680176 787.747498,565.662842 
	C795.324707,565.647583 795.800964,565.183838 794.485535,557.699829 
	C788.528076,523.806702 782.538696,489.919128 776.494690,456.041351 
	C775.071411,448.063324 774.953064,448.097382 766.964783,448.126099 
	C763.799561,448.137451 760.631165,448.152893 757.469666,448.027985 
	C754.376282,447.905731 752.423340,448.749207 752.089294,452.307648 
	C751.733459,456.098785 750.881165,459.844025 750.230286,463.606628 
	C745.667053,489.983154 741.080688,516.355652 736.545898,542.737061 
	C735.265564,550.185181 734.132324,557.658569 732.848389,565.637817 
	C737.769287,565.637817 742.069763,565.638245 746.370239,565.637634 
	C748.330078,565.637390 749.423462,564.779541 749.671387,562.718445 
	C750.286743,557.602905 751.018555,552.501282 751.751221,546.502930 
z"/>
<path fill="#000000" opacity="1.000000" stroke="none" 
	d="
M868.985535,568.266174 
	C855.829102,568.185730 857.205383,569.486328 859.375916,556.942200 
	C865.548523,521.268433 871.654236,485.582703 877.596619,449.870117 
	C878.189819,446.305115 879.629578,444.897217 883.028381,444.938995 
	C888.521179,445.006531 894.016113,445.073547 899.507935,444.992889 
	C902.981873,444.941895 904.549072,446.565735 905.126526,449.918182 
	C908.734070,470.863037 912.414185,491.795624 916.146973,512.718567 
	C919.004456,528.735229 921.952820,544.735718 924.905273,560.735229 
	C926.278687,568.177917 926.223511,568.292542 918.683289,568.273682 
	C917.185059,568.269958 915.686768,568.278137 914.188538,568.286255 
	C904.156677,568.340759 904.177124,568.338257 902.678528,558.177368 
	C902.000000,553.576233 901.198059,548.993286 900.497437,544.395264 
	C900.055420,541.494629 898.648499,540.258789 895.500977,540.173950 
	C883.506409,539.850891 883.479919,539.733154 881.371887,551.524292 
	C880.729797,555.115540 880.020508,558.730774 879.839355,562.359802 
	C879.590271,567.348450 877.208496,569.111938 872.465271,568.300171 
	C871.494263,568.133972 870.471558,568.270203 868.985535,568.266174 
M868.339355,520.720764 
	C865.795288,535.393250 863.251221,550.065735 860.702209,564.766663 
	C864.301208,566.346802 867.697693,565.191650 870.922180,565.705383 
	C875.635498,566.456238 877.102905,563.857727 877.570618,559.866394 
	C878.246765,554.096008 879.149719,548.348511 879.679443,542.565918 
	C879.999390,539.073364 881.456665,537.497131 885.046326,537.638550 
	C889.369080,537.808777 893.709106,537.817322 898.031311,537.641785 
	C901.485291,537.501465 902.733337,539.195190 903.075928,542.345459 
	C903.524902,546.473206 904.092957,550.598083 904.843811,554.681152 
	C907.022522,566.527710 907.068481,566.519226 918.946472,565.666687 
	C919.112366,565.654785 919.279480,565.649963 919.445801,565.653320 
	C922.197449,565.709045 922.875610,564.291138 922.363708,561.792786 
	C921.396606,557.072449 920.491821,552.338135 919.646729,547.594360 
	C914.515991,518.792786 909.485168,489.972961 904.210754,461.197784 
	C903.445923,457.025238 904.478821,451.548798 901.225891,448.991791 
	C897.827087,446.320038 892.536499,448.304932 888.082214,448.079681 
	C880.614014,447.701965 880.544373,448.136322 879.334045,455.503845 
	C875.807068,476.972748 872.083435,498.409363 868.339355,520.720764 
z"/>
<path fill="#000000" opacity="1.000000" stroke="none" 
	d="
M484.873352,568.256836 
	C471.569916,568.263977 458.748566,568.175110 445.930573,568.343323 
	C442.144440,568.392944 440.604553,567.272888 440.615784,563.252136 
	C440.721283,525.458191 440.701324,487.663818 440.618866,449.869781 
	C440.611420,446.460419 441.890747,444.934906 445.241333,444.968719 
	C449.236420,445.009094 453.236359,445.100769 457.226501,444.957062 
	C461.575714,444.800385 463.088379,446.921112 463.059418,451.038422 
	C462.961151,465.022797 463.007294,479.008240 463.008575,492.993256 
	C463.010010,508.976349 463.011902,524.959412 463.035034,540.942505 
	C463.044800,547.670105 463.069824,547.673218 469.565186,547.684753 
	C475.225983,547.694763 480.889038,547.794617 486.546753,547.665161 
	C489.929932,547.587830 491.461914,548.919434 491.326019,552.361145 
	C491.194702,555.685852 491.065918,559.040100 491.355133,562.344727 
	C491.758636,566.955627 489.929779,568.895935 484.873352,568.256836 
M460.251801,548.042542 
	C460.156219,546.550720 459.977997,545.059021 459.977295,543.567139 
	C459.963745,514.274536 459.970825,484.981903 459.973633,455.689270 
	C459.973877,453.247101 459.973663,450.804932 459.973663,447.970490 
	C455.759125,447.970490 451.623444,448.226685 447.536102,447.892303 
	C444.040771,447.606354 443.258331,449.068787 443.263153,452.176910 
	C443.319580,488.459900 443.340363,524.743164 443.231689,561.025940 
	C443.220062,564.907349 444.806824,565.788757 448.318176,565.725525 
	C458.134796,565.548706 467.956848,565.706726 477.776093,565.635986 
	C490.177063,565.546570 488.519592,567.487000 488.664673,554.314392 
	C488.698975,551.197815 487.469269,550.213135 484.543915,550.261536 
	C478.221161,550.366211 471.894897,550.325134 465.571045,550.255127 
	C463.829834,550.235901 461.829224,550.854187 460.251801,548.042542 
z"/>
<path fill="#000000" opacity="1.000000" stroke="none" 
	d="
M840.993103,444.930786 
	C845.322144,444.966888 849.152527,445.000061 852.982971,445.036743 
	C856.018250,445.065796 857.528748,446.369720 857.377502,449.634125 
	C857.192810,453.622864 857.196106,457.633392 857.381653,461.622253 
	C857.545837,465.153687 855.968506,466.395966 852.621155,466.241150 
	C849.630066,466.102844 846.610413,466.431519 843.632446,466.192291 
	C839.363159,465.849335 838.263855,467.763885 838.283020,471.778870 
	C838.414307,499.260345 838.352417,526.742798 838.351257,554.224915 
	C838.351135,557.222961 838.227173,560.226318 838.366028,563.217651 
	C838.529968,566.751282 837.251343,568.478882 833.466797,568.291077 
	C829.313049,568.085083 825.129028,568.044006 820.980591,568.297485 
	C816.751526,568.555969 815.575684,566.732788 815.606812,562.720032 
	C815.755432,543.566772 815.672729,524.411804 815.672913,505.257446 
	C815.673035,494.097961 815.543579,482.936096 815.744080,471.780212 
	C815.816345,467.755768 814.635315,465.815948 810.375305,466.221375 
	C808.064270,466.441284 805.715393,466.268707 803.383545,466.262238 
	C796.866150,466.244202 796.778503,466.240997 796.854553,459.487122 
	C797.041992,442.840179 794.626038,445.157593 811.513367,444.948578 
	C821.172363,444.828979 830.834045,444.928497 840.993103,444.930786 
M835.719727,516.500000 
	C835.725403,501.841339 835.750488,487.182617 835.729431,472.523987 
	C835.716675,463.662750 835.685181,463.730530 844.656555,463.643036 
	C855.646484,463.535828 854.674561,465.437378 854.808350,452.963654 
	C854.848145,449.257843 853.512268,448.006134 849.853271,448.046204 
	C837.028625,448.186737 824.201355,448.085907 811.375122,448.078003 
	C807.611816,448.075714 803.848511,448.077606 800.287720,448.077606 
	C800.287720,453.477936 800.287720,458.374725 800.287720,463.670624 
	C804.521240,463.670624 808.352112,463.930847 812.132507,463.605560 
	C816.990356,463.187531 818.399658,465.127136 818.367493,469.882751 
	C818.178040,497.866241 818.267517,525.851624 818.253357,553.836365 
	C818.247253,565.821899 818.238586,565.637573 830.100952,565.769165 
	C834.549866,565.818542 835.862732,564.263000 835.802490,559.975525 
	C835.603516,545.819397 835.721680,531.658875 835.719727,516.500000 
z"/>
<path fill="#000000" opacity="1.000000" stroke="none" 
	d="
M720.108215,506.000000 
	C719.858704,518.642151 720.746887,530.809631 719.372131,542.925964 
	C717.387756,560.415222 704.633484,567.893005 692.627808,568.159241 
	C683.304504,568.366028 673.967468,568.050476 664.649414,568.357544 
	C659.829468,568.516357 658.762695,566.408081 658.777771,562.080750 
	C658.899353,527.102417 658.854004,492.123474 658.871338,457.144714 
	C658.877380,444.973846 658.893066,444.882172 671.041077,444.972809 
	C679.022827,445.032349 687.018860,444.394104 694.987549,445.512878 
	C708.817017,447.454468 717.896057,457.079102 719.358826,471.061310 
	C720.558960,482.533539 719.940063,494.019684 720.108215,506.000000 
M664.090332,448.130524 
	C661.408752,448.592865 661.364502,450.608551 661.364563,452.692688 
	C661.365540,488.977783 661.377930,525.262939 661.315186,561.547913 
	C661.310120,564.504028 662.301514,565.751770 665.365784,565.699829 
	C674.018616,565.553345 682.683838,565.845764 691.327515,565.521057 
	C706.442932,564.953125 714.954407,556.654602 717.071350,541.598389 
	C718.036682,534.732849 717.093994,527.976562 717.018982,521.177917 
	C716.837463,504.726410 718.005859,488.240723 716.623047,471.831543 
	C715.332092,456.512024 705.390503,448.036346 689.946777,448.056854 
	C681.624817,448.067902 673.302795,448.066406 664.090332,448.130524 
z"/>
<path fill="#000000" opacity="1.000000" stroke="none" 
	d="
M641.975037,566.685791 
	C635.372803,569.481567 628.745728,568.156982 622.207642,567.938232 
	C620.182922,567.870483 620.273438,565.402283 620.240112,563.841980 
	C620.119446,558.185974 620.184998,552.525696 620.201477,546.867126 
	C620.243591,532.412231 620.303101,517.957275 620.344055,503.502380 
	C620.371826,493.697418 620.362061,483.892365 620.402100,474.087463 
	C620.434753,466.109619 620.644043,458.130035 620.521057,450.155121 
	C620.462158,446.337616 621.779846,444.898987 625.730286,444.855530 
	C642.285645,444.673492 642.301941,444.569641 642.283813,460.859497 
	C642.244690,495.984680 642.185791,531.109863 641.975037,566.685791 
M628.998596,448.087769 
	C624.334595,447.049988 623.054199,448.996399 623.078186,453.603363 
	C623.255432,487.726624 623.163025,521.851196 623.222229,555.975281 
	C623.241699,567.169983 622.089966,565.331543 633.209656,565.755615 
	C638.159485,565.944336 639.822449,564.483154 639.789551,559.324097 
	C639.574097,525.533997 639.697021,491.741760 639.666443,457.950256 
	C639.656372,446.804718 640.888977,448.067078 628.998596,448.087769 
z"/>
<path fill="#000000" opacity="1.000000" stroke="none" 
	d="
M504.539734,567.430664 
	C504.028076,565.455139 503.703857,563.814209 503.702576,562.172974 
	C503.674103,525.385254 503.789581,488.596832 503.557159,451.810547 
	C503.524658,446.667328 505.409241,444.942780 510.062225,444.999329 
	C513.556824,445.041809 517.059143,445.105957 520.546265,444.928040 
	C524.881897,444.706909 526.286133,446.601135 526.259705,450.884399 
	C526.103577,476.185394 526.165344,501.487762 526.164062,526.789673 
	C526.163452,538.774780 526.100464,550.760864 526.245605,562.744324 
	C526.293457,566.698181 525.064636,568.650085 520.789246,568.316162 
	C515.500854,567.903076 510.153809,568.841980 504.539734,567.430664 
M523.542175,451.039246 
	C523.440125,448.611084 521.875366,448.034851 519.804993,448.058868 
	C517.806213,448.082062 515.806946,448.073334 513.807922,448.072784 
	C506.287811,448.070801 506.291931,448.069946 506.289551,455.350403 
	C506.284821,469.844147 506.269562,484.337921 506.268616,498.831665 
	C506.267303,519.322815 506.257385,539.814087 506.311096,560.305115 
	C506.315613,562.024475 505.488831,564.679688 507.660461,565.165833 
	C512.197388,566.181396 517.087280,566.475220 521.466553,565.100281 
	C524.364258,564.190491 522.824951,560.377502 523.170959,557.867188 
	C523.510620,555.402283 523.595093,552.886475 523.595886,550.392944 
	C523.606628,517.573975 523.582581,484.754944 523.542175,451.039246 
z"/>
<path fill="#000000" opacity="1.000000" stroke="none" 
	d="
M762.655701,478.123291 
	C762.896729,476.520355 762.479858,474.938202 764.898743,474.622131 
	C766.332703,482.854858 767.792725,491.077026 769.189575,499.309937 
	C770.215393,505.356232 771.056274,511.435577 772.175781,517.463745 
	C772.882019,521.266541 771.831970,522.953125 767.691345,522.969360 
	C753.852966,523.023682 754.685608,524.012939 757.293884,510.904358 
	C759.428345,500.176910 760.877563,489.313110 762.655701,478.123291 
M767.755554,508.371887 
	C766.682617,501.580109 765.609680,494.788330 764.536743,487.996521 
	C764.300964,487.983582 764.065247,487.970612 763.829468,487.957642 
	C762.011780,498.446289 760.194092,508.934967 758.375427,519.429382 
	C769.466736,521.210510 770.346375,520.329468 768.078918,510.202057 
	C768.006409,509.877960 767.939819,509.552582 767.755554,508.371887 
z"/>
<path fill="#000000" opacity="1.000000" stroke="none" 
	d="
M887.217407,491.409943 
	C888.380554,485.542419 888.726013,479.940887 890.872742,473.417053 
	C893.252441,478.558502 893.146667,483.020386 893.968323,487.190369 
	C895.927551,497.132782 897.355652,507.178680 899.115662,517.162109 
	C899.845215,521.300415 898.325195,523.131958 894.133545,522.919006 
	C880.120911,522.206970 881.655334,526.257263 884.035034,511.028107 
	C885.035522,504.625488 886.078064,498.229401 887.217407,491.409943 
M892.848022,520.363342 
	C894.446289,520.151978 896.660400,520.347351 896.262146,517.884644 
	C894.648193,507.902557 892.840149,497.951843 890.860779,486.595764 
	C889.186523,496.578156 887.781921,505.054108 886.339050,513.523499 
	C885.177368,520.342896 885.220825,520.414612 892.848022,520.363342 
z"/>
<path fill="#000000" opacity="1.000000" stroke="none" 
	d="
M678.859009,508.000000 
	C678.864685,494.840393 679.015320,482.178284 678.798157,469.522491 
	C678.719177,464.917786 680.372253,463.101471 684.914124,463.616302 
	C686.887695,463.839996 688.908752,463.609528 690.906067,463.664673 
	C696.867004,463.829285 701.192993,467.608246 701.235046,473.531342 
	C701.394897,496.017517 701.375427,518.505981 701.239014,540.992432 
	C701.209656,545.818909 697.622620,549.367981 692.882019,550.228210 
	C692.555542,550.287415 692.219238,550.319702 691.887573,550.319153 
	C676.423767,550.292786 679.139221,552.086121 678.899902,538.482910 
	C678.724060,528.491455 678.860962,518.494507 678.859009,508.000000 
M698.915222,486.509155 
	C698.859070,482.346130 699.084778,478.155670 698.682373,474.026398 
	C698.040344,467.436676 687.850403,462.861145 682.668945,466.650085 
	C681.757324,467.316711 681.691467,468.278656 681.693665,469.321930 
	C681.746704,494.304749 681.781128,519.287598 681.812378,544.270447 
	C681.814026,545.603333 681.659546,546.849976 683.310364,547.561707 
	C691.271729,550.994141 698.781982,546.229431 698.834534,537.476807 
	C698.934509,520.820312 698.894226,504.162994 698.915222,486.509155 
z"/>
</svg>
